<svg xmlns="http://www.w3.org/2000/svg" viewBox="0 0 100 100">
  <defs>
    <linearGradient id="carGradient" x1="0%" y1="0%" x2="100%" y2="100%">
      <stop offset="0%" style="stop-color:#2563eb;stop-opacity:1" />
      <stop offset="100%" style="stop-color:#7c3aed;stop-opacity:1" />
    </linearGradient>
  </defs>
  <!-- Car silhouette -->
  <path d="M10 55 L15 35 L30 25 L70 25 L85 35 L90 55 L90 70 L85 75 L80 75 L78 65 L22 65 L20 75 L15 75 L10 70 Z" fill="url(#carGradient)"/>
  <!-- Windows -->
  <path d="M20 35 L32 28 L50 28 L50 55 L18 55 Z" fill="#ffffff" opacity="0.9"/>
  <path d="M54 28 L68 28 L82 35 L82 55 L54 55 Z" fill="#ffffff" opacity="0.9"/>
  <!-- Wheels -->
  <circle cx="25" cy="70" r="8" fill="#1f2937"/>
  <circle cx="25" cy="70" r="4" fill="#6b7280"/>
  <circle cx="75" cy="70" r="8" fill="#1f2937"/>
  <circle cx="75" cy="70" r="4" fill="#6b7280"/>
  <!-- Headlight -->
  <ellipse cx="88" cy="45" rx="3" ry="4" fill="#fbbf24"/>
</svg>
